<svg xmlns="http://www.w3.org/2000/svg" version="1.0" width="2080.000000pt" height="300pt" viewBox="0 0 2080.000000 300.000000" preserveAspectRatio="xMidYMid meet">

<g transform="translate(-400.000000,955.000000) scale(0.100000,-0.100000)" fill="#000000" stroke="none">
<path d="M16045 9538 c-2 -7 -124 -413 -270 -901 -146 -488 -274 -912 -285 -940 -46 -124 -112 -186 -197 -187 -30 0 -33 -3 -33 -30 l0 -30 273 2 272 3 3 26 c3 25 1 26 -62 31 -104 9 -144 49 -132 133 4 22 34 136 68 253 l61 212 258 0 258 0 67 -202 c74 -225 88 -308 60 -351 -20 -30 -63 -47 -118 -47 -37 0 -39 -2 -36 -27 l3 -28 345 0 345 0 3 28 c3 25 1 27 -35 27 -70 0 -112 18 -143 62 -32 44 -122 311 -467 1388 -171 533 -190 585 -211 588 -12 2 -24 -3 -27 -10z m58 -931 c59 -189 110 -353 114 -365 l5 -22 -222 0 -222 0 5 23 c27 104 203 707 207 707 3 0 54 -155 113 -343z"/>
<path d="M20776 9538 c-3 -7 -7 -26 -11 -43 -18 -85 -53 -93 -176 -39 -158 69 -184 76 -330 81 -170 7 -256 -10 -384 -73 -359 -176 -591 -661 -547 -1142 6 -70 20 -161 31 -203 85 -322 300 -563 587 -658 284 -95 596 -52 870 121 l84 53 0 337 c0 209 4 357 11 390 19 91 58 125 162 143 31 5 37 10 37 30 l0 25 -350 0 -350 0 0 -25 c0 -20 6 -25 38 -30 104 -18 143 -50 161 -135 7 -31 11 -180 11 -380 l0 -328 -68 -45 c-105 -71 -160 -89 -284 -95 -89 -4 -117 -1 -176 17 -201 61 -345 278 -409 612 -25 135 -25 526 1 653 48 237 141 417 276 533 100 86 250 121 401 93 145 -27 309 -154 376 -290 33 -68 63 -170 63 -214 0 -22 4 -26 29 -26 28 0 29 2 25 38 -2 20 -8 129 -14 242 -17 351 -19 370 -41 370 -11 0 -21 -6 -23 -12z"/>
<path d="M4130 9270 l0 -230 24 0 c21 0 24 6 30 58 10 91 36 159 78 207 56 63 103 75 311 82 l168 6 -3 -874 c-3 -871 -3 -874 -25 -921 -30 -65 -58 -81 -159 -86 l-84 -5 0 -28 0 -29 408 2 407 3 0 25 c0 23 -4 25 -45 28 -142 8 -189 38 -209 132 -7 35 -11 326 -11 902 l0 851 163 -6 c182 -6 243 -19 295 -67 40 -36 78 -118 87 -185 11 -89 13 -95 40 -95 l25 0 0 230 0 230 -750 0 -750 0 0 -230z"/>
<path d="M5900 9476 c0 -22 5 -24 69 -28 89 -7 142 -36 168 -91 17 -39 18 -87 18 -882 0 -820 0 -841 -20 -879 -31 -62 -62 -79 -155 -84 -81 -5 -81 -5 -78 -31 l3 -26 398 -3 397 -2 0 30 0 30 -62 0 c-74 0 -136 26 -161 69 -29 49 -36 158 -37 534 l0 357 370 0 370 0 0 -362 c0 -368 -8 -475 -36 -529 -22 -43 -83 -69 -167 -69 l-68 0 3 -27 3 -28 405 0 405 0 3 28 c3 27 3 27 -61 27 -116 0 -168 31 -192 114 -13 42 -15 172 -15 850 0 445 5 818 10 840 19 84 72 121 188 132 67 6 72 8 72 30 l0 24 -410 0 -410 0 0 -24 c0 -22 5 -23 77 -30 125 -10 169 -49 183 -162 5 -38 9 -210 10 -381 l0 -313 -371 0 -371 0 4 358 3 357 25 50 c30 61 70 83 164 92 61 5 66 8 66 29 l0 24 -400 0 -400 0 0 -24z"/>
<path d="M7990 9476 c0 -22 5 -24 71 -29 117 -10 163 -50 180 -157 6 -41 9 -359 7 -855 l-3 -790 -22 -48 c-28 -61 -79 -86 -170 -87 l-63 0 0 -30 0 -30 670 0 670 0 10 23 c15 35 152 489 148 492 -2 1 -13 5 -24 9 -19 6 -25 -1 -49 -61 -53 -135 -126 -237 -202 -284 -79 -49 -142 -59 -380 -59 -123 0 -233 4 -248 10 -52 20 -55 42 -55 485 l0 406 243 -3 c231 -3 244 -4 278 -26 47 -28 76 -96 85 -191 6 -66 9 -71 30 -71 l24 0 0 355 0 355 -25 0 c-23 0 -25 -4 -25 -43 0 -23 -7 -70 -15 -102 -18 -71 -69 -127 -131 -144 -22 -6 -131 -11 -251 -11 l-213 0 0 401 0 401 278 -5 c286 -5 330 -10 386 -50 37 -26 81 -121 97 -208 12 -66 14 -69 40 -69 25 0 27 2 23 38 -6 55 -24 337 -24 372 l0 30 -670 0 -670 0 0 -24z"/>
<path d="M10510 9270 l0 -230 24 0 c27 0 36 16 36 65 0 53 37 157 70 197 51 62 115 79 313 86 l167 5 -2 -879 c-3 -856 -4 -880 -23 -918 -32 -63 -63 -79 -158 -86 -79 -5 -82 -6 -82 -30 l0 -25 405 0 405 0 3 26 c3 25 2 26 -70 32 -135 11 -168 38 -187 157 -7 42 -11 362 -11 893 l0 827 123 0 c149 0 245 -13 298 -40 71 -37 121 -130 136 -257 5 -47 8 -53 29 -53 l24 0 0 230 0 230 -750 0 -750 0 0 -230z"/>
<path d="M12280 9477 c0 -23 4 -24 71 -30 121 -10 171 -48 189 -146 14 -72 14 -1580 0 -1651 -19 -102 -73 -140 -199 -140 -62 0 -62 0 -59 -27 l3 -28 405 0 405 0 0 25 c0 24 -3 25 -75 31 -121 8 -162 40 -180 138 -6 30 -10 215 -10 417 l0 364 69 0 69 0 288 -472 c158 -260 294 -481 302 -491 14 -16 34 -17 206 -15 l191 3 0 25 c0 22 -5 26 -48 32 -62 8 -87 26 -135 91 -35 47 -519 831 -525 850 -1 4 41 22 93 40 115 40 190 87 259 163 91 99 131 200 131 331 0 145 -45 249 -152 349 -75 70 -136 104 -238 135 -73 22 -90 23 -567 27 l-493 3 0 -24z m868 -102 c73 -22 152 -97 197 -188 110 -225 34 -511 -162 -611 -60 -30 -191 -56 -284 -56 l-69 0 0 419 0 418 48 16 c62 21 203 22 270 2z"/>
<path d="M14210 9477 c0 -22 6 -24 80 -34 96 -13 125 -30 153 -91 22 -47 22 -49 22 -852 0 -443 -4 -827 -8 -853 -12 -69 -54 -113 -120 -126 -29 -6 -68 -12 -87 -14 -30 -2 -35 -6 -35 -27 l0 -25 393 -3 392 -2 0 30 c0 29 -1 30 -47 30 -63 0 -123 17 -151 43 -52 48 -53 56 -50 948 3 811 3 825 24 863 26 50 73 75 158 83 61 5 66 8 66 29 l0 24 -395 0 -395 0 0 -23z"/>
<path d="M17170 9477 c0 -20 8 -24 61 -34 70 -13 86 -26 165 -129 l54 -70 0 -780 c0 -431 -5 -797 -10 -818 -18 -78 -73 -121 -169 -133 -48 -5 -51 -7 -51 -34 l0 -29 315 0 315 0 0 29 0 28 -89 5 c-107 6 -142 24 -174 88 -22 45 -22 47 -25 660 -2 338 -2 662 0 720 l3 105 584 -833 c403 -573 590 -832 603 -832 16 0 17 46 20 953 3 940 3 952 24 987 27 47 76 78 135 86 43 6 49 9 49 30 l0 24 -295 0 -295 0 0 -24 c0 -21 5 -24 69 -30 120 -11 162 -37 186 -120 13 -42 15 -151 15 -675 -1 -606 -1 -625 -19 -604 -10 12 -245 344 -522 737 l-503 716 -223 0 -223 0 0 -23z"/>
<path d="M21390 9475 c0 -22 4 -25 40 -25 128 0 199 -46 219 -141 8 -39 11 -286 9 -864 -3 -787 -4 -811 -23 -850 -28 -55 -69 -76 -166 -82 -79 -6 -80 -6 -77 -32 l3 -26 669 0 670 0 73 269 c40 148 72 270 71 271 -2 1 -13 5 -24 9 -19 6 -24 -2 -49 -71 -64 -182 -134 -283 -222 -321 -85 -36 -156 -44 -375 -40 l-208 3 -27 28 -28 27 0 838 c0 903 -1 883 53 935 29 28 100 47 173 47 35 0 39 3 39 25 l0 25 -410 0 -410 0 0 -25z"/>
<path d="M23150 9476 c0 -22 5 -23 74 -29 106 -8 148 -34 177 -107 17 -44 26 -1455 10 -1624 -15 -163 -41 -193 -181 -205 -72 -6 -75 -7 -75 -31 l0 -25 675 0 674 0 78 254 c43 140 77 256 75 257 -1 1 -12 5 -25 8 -16 6 -24 3 -28 -11 -4 -10 -24 -55 -45 -101 -73 -159 -150 -237 -271 -273 -62 -18 -90 -20 -303 -17 -229 3 -235 4 -257 26 l-23 23 -3 425 -3 425 244 -3 244 -3 36 -28 c50 -38 66 -74 80 -173 11 -77 13 -84 34 -84 l23 0 0 355 0 355 -24 0 c-22 0 -24 -5 -30 -72 -4 -39 -14 -89 -23 -110 -19 -47 -71 -94 -120 -107 -21 -6 -133 -11 -250 -11 l-213 0 0 400 0 400 233 0 c242 0 348 -10 397 -35 66 -34 105 -104 130 -233 11 -55 15 -62 36 -62 29 0 28 -11 12 248 l-12 192 -673 0 -673 0 0 -24z"/>
<path d="M9820 6840 c0 -293 0 -300 20 -300 20 0 20 7 20 300 0 293 0 300 -20 300 -20 0 -20 -7 -20 -300z"/>
<path d="M7631 7101 c-26 -14 -30 -19 -17 -24 12 -5 16 -20 16 -61 l0 -55 -35 6 c-70 11 -115 -49 -115 -154 0 -105 59 -160 121 -114 29 21 29 21 29 1 0 -24 5 -24 48 -1 30 15 32 19 18 30 -14 11 -16 43 -16 202 0 104 -3 189 -7 189 -5 -1 -23 -9 -42 -19z m-11 -170 c14 -28 13 -184 -2 -199 -7 -7 -23 -12 -36 -12 -34 0 -55 57 -50 136 2 34 10 69 17 78 18 22 58 20 71 -3z"/>
<path d="M8168 7102 c-40 -18 -49 -31 -20 -28 14 1 17 -9 20 -64 2 -52 1 -63 -9 -52 -21 20 -73 15 -96 -10 -36 -40 -47 -71 -47 -136 0 -70 21 -110 67 -126 22 -8 33 -5 57 12 30 22 30 22 30 2 0 -24 5 -24 49 -1 26 14 30 19 17 24 -14 6 -16 30 -16 202 0 107 -3 195 -7 194 -5 0 -25 -8 -45 -17z m-14 -174 c22 -30 22 -180 2 -198 -22 -18 -59 -8 -73 20 -16 31 -17 141 -1 175 14 32 51 33 72 3z"/>
<path d="M11528 7102 c-33 -15 -52 -34 -30 -31 31 5 32 -2 32 -175 0 -169 -1 -175 -22 -190 -21 -15 -19 -16 42 -16 49 1 61 3 48 11 -16 9 -18 30 -18 214 0 113 -3 205 -7 204 -5 0 -25 -8 -45 -17z"/>
<path d="M12580 7105 c-17 -20 -5 -45 20 -45 11 0 23 7 26 15 6 15 -11 45 -26 45 -4 0 -13 -7 -20 -15z"/>
<path d="M13710 7105 c-17 -20 -5 -45 20 -45 11 0 23 7 26 15 6 15 -11 45 -26 45 -4 0 -13 -7 -20 -15z"/>
<path d="M15491 7101 c-26 -14 -30 -19 -17 -24 12 -5 16 -20 16 -61 l0 -55 -35 6 c-70 11 -115 -49 -115 -154 0 -105 59 -160 121 -114 29 21 29 21 29 1 0 -24 5 -24 48 -1 30 15 32 19 18 30 -14 11 -16 43 -16 202 0 104 -3 189 -7 189 -5 -1 -23 -9 -42 -19z m-11 -170 c14 -28 13 -184 -2 -199 -7 -7 -23 -12 -36 -12 -34 0 -55 57 -50 136 2 34 10 69 17 78 18 22 58 20 71 -3z"/>
<path d="M16868 7102 c-21 -8 -38 -19 -38 -25 0 -6 3 -7 7 -4 16 17 33 -19 33 -70 0 -50 -1 -53 -19 -43 -76 40 -151 -52 -138 -169 6 -51 33 -92 70 -105 22 -8 33 -5 57 12 30 22 30 22 30 2 0 -24 5 -24 49 -1 26 14 30 19 17 24 -14 6 -16 30 -16 196 0 104 -3 192 -7 194 -5 2 -25 -3 -45 -11z m-11 -182 c19 -37 17 -165 -3 -184 -22 -22 -50 -20 -68 6 -19 26 -22 158 -5 189 15 28 60 22 76 -11z"/>
<path d="M18878 7103 c-36 -14 -36 -15 -17 -34 13 -13 19 -33 19 -64 l0 -45 -39 6 c-51 8 -78 -8 -102 -59 -57 -128 25 -285 109 -207 26 25 30 25 34 1 3 -18 5 -18 40 -4 37 15 37 15 18 32 -18 15 -20 30 -22 202 l-3 187 -37 -15z m-12 -188 c20 -48 19 -153 -3 -177 -44 -49 -88 2 -88 102 1 77 16 110 51 110 19 0 28 -8 40 -35z"/>
<path d="M8553 7084 c-48 -28 -51 -32 -25 -30 15 1 17 -14 20 -164 3 -158 2 -166 -19 -182 -21 -18 -20 -18 46 -18 65 0 67 0 46 18 -20 16 -21 27 -23 209 l-3 193 -42 -26z"/>
<path d="M8845 7102 c-48 -10 -85 -72 -85 -142 0 -54 22 -94 60 -110 27 -11 37 -11 66 4 35 16 35 16 28 -6 -22 -73 -66 -128 -118 -148 -43 -16 -25 -23 25 -10 56 15 121 81 143 146 49 143 -15 286 -119 266z m61 -54 c10 -19 14 -51 12 -96 -3 -63 -5 -67 -31 -76 -23 -8 -31 -6 -49 12 -33 32 -39 151 -10 180 27 27 58 18 78 -20z"/>
<path d="M9133 7095 c-17 -7 -39 -27 -47 -44 -20 -38 -20 -65 0 -29 43 80 145 23 129 -72 -8 -45 -62 -139 -109 -190 -68 -74 -72 -70 51 -70 l110 0 10 35 c12 38 8 42 -21 20 -19 -14 -146 -22 -146 -10 0 3 25 35 55 70 61 72 90 124 100 177 9 48 -16 95 -60 114 -40 16 -32 17 -72 -1z"/>
<path d="M9555 7105 c-5 -2 -23 -6 -38 -9 -42 -10 -113 -81 -134 -134 -21 -55 -23 -165 -4 -202 50 -94 143 -102 188 -17 55 106 -17 238 -107 194 -27 -14 -30 -14 -30 1 0 9 14 41 30 70 22 37 42 58 68 70 20 9 39 18 41 19 7 5 -3 10 -14 8z m-59 -193 c23 -15 36 -57 37 -114 0 -47 -4 -63 -21 -80 -30 -31 -67 -13 -81 39 -18 62 -14 140 7 152 20 12 43 14 58 3z"/>
<path d="M14350 7095 c-9 -11 -9 -29 1 -85 7 -38 15 -70 19 -70 8 0 30 100 30 136 0 12 -7 25 -16 28 -21 8 -20 8 -34 -9z"/>
<path d="M17965 7101 c-28 -12 -51 -41 -59 -73 -11 -47 17 -91 93 -152 41 -33 73 -67 77 -81 16 -64 -30 -108 -88 -84 -34 14 -47 29 -64 76 -13 38 -13 38 -13 -37 -1 -47 3 -70 8 -61 6 10 17 11 37 6 16 -4 48 -8 72 -9 35 0 48 5 73 31 25 25 32 40 32 72 0 53 -21 82 -97 137 -35 25 -69 56 -76 69 -28 52 19 106 74 85 29 -11 66 -56 66 -81 0 -11 5 -19 10 -19 6 0 10 26 10 58 l0 59 -32 0 c-18 0 -49 3 -68 6 -19 4 -44 3 -55 -2z"/>
<path d="M6233 7088 l27 -10 0 -183 0 -183 -27 -10 c-23 -9 -12 -11 57 -11 75 -1 82 1 60 12 -23 12 -25 18 -28 100 l-3 88 58 -3 c51 -3 58 -6 64 -28 4 -15 7 2 7 45 0 43 -3 60 -7 45 -6 -22 -13 -25 -64 -28 l-57 -3 0 81 0 80 58 0 c81 0 102 -8 118 -44 l13 -31 1 48 0 47 -152 -1 c-115 0 -146 -3 -125 -11z"/>
<path d="M10110 7087 l25 -13 0 -179 0 -179 -25 -13 c-22 -11 -13 -13 70 -13 122 0 166 13 212 61 74 78 74 211 -1 289 -45 47 -89 60 -211 60 -83 0 -92 -2 -70 -13z m206 -32 c43 -28 59 -72 59 -165 0 -71 -4 -91 -23 -121 -26 -42 -65 -62 -113 -57 l-34 3 -3 174 c-2 133 1 177 10 183 17 12 75 2 104 -17z"/>
<path d="M11837 7088 c20 -10 21 -18 25 -162 3 -122 7 -157 21 -184 43 -78 184 -82 234 -6 15 24 19 54 22 185 3 149 4 157 25 167 17 9 10 11 -39 11 -50 0 -56 -2 -37 -11 21 -11 22 -15 22 -160 0 -111 -4 -156 -15 -177 -27 -54 -111 -65 -151 -19 -17 18 -19 38 -19 181 l0 161 25 13 c22 11 16 13 -55 12 -63 0 -75 -3 -58 -11z"/>
<path d="M14830 7093 c36 -13 40 -34 40 -198 0 -164 -4 -185 -40 -198 -8 -3 21 -5 65 -5 44 0 73 2 65 5 -36 13 -40 34 -40 198 0 164 4 185 40 198 8 3 -21 5 -65 5 -44 0 -73 -2 -65 -5z"/>
<path d="M19924 7079 l26 -20 0 -173 c0 -169 0 -173 -22 -184 -19 -9 -12 -11 42 -11 55 1 61 2 38 11 l-28 10 0 150 0 151 118 -168 117 -168 3 194 c2 184 3 195 23 212 21 17 19 17 -42 16 -35 -1 -54 -4 -41 -6 36 -7 43 -35 40 -165 l-3 -123 -104 148 -104 147 -45 0 -45 0 27 -21z"/>
<path d="M13932 7043 c-1 -7 -18 -31 -38 -53 -26 -29 -32 -40 -20 -40 14 0 16 -14 16 -94 0 -51 3 -108 6 -126 12 -58 76 -63 105 -7 9 18 9 20 -2 10 -18 -18 -46 -16 -53 3 -3 9 -6 60 -6 115 0 99 0 99 25 99 14 0 25 5 25 10 0 6 -11 10 -24 10 -22 0 -25 5 -29 43 -2 23 -4 36 -5 30z"/>
<path d="M17622 7043 c-1 -7 -18 -31 -38 -53 -26 -29 -32 -40 -20 -40 14 0 16 -14 16 -94 0 -51 3 -108 6 -126 12 -58 76 -63 105 -7 9 18 9 20 -2 10 -18 -18 -46 -16 -53 3 -3 9 -6 60 -6 115 0 99 0 99 25 99 14 0 25 5 25 10 0 6 -11 10 -24 10 -22 0 -25 5 -29 43 -2 23 -4 36 -5 30z"/>
<path d="M18271 7030 c-7 -14 -25 -37 -39 -52 -21 -23 -23 -28 -9 -28 15 0 17 -14 17 -113 0 -86 4 -118 16 -135 19 -27 48 -28 74 -2 24 24 28 49 5 30 -8 -7 -22 -10 -30 -6 -12 4 -15 26 -15 116 l0 110 25 0 c14 0 25 5 25 10 0 6 -11 10 -24 10 -22 0 -25 5 -28 43 -3 41 -3 42 -17 17z"/>
<path d="M19621 7030 c-7 -14 -25 -37 -39 -52 -21 -23 -23 -28 -9 -28 15 0 17 -14 17 -113 0 -86 4 -118 16 -135 19 -27 48 -28 74 -2 24 24 28 49 5 30 -8 -7 -22 -10 -30 -6 -12 4 -15 26 -15 116 l0 110 25 0 c14 0 25 5 25 10 0 6 -11 10 -24 10 -22 0 -25 5 -28 43 -3 41 -3 42 -17 17z"/>
<path d="M6632 6954 c-34 -24 -52 -68 -52 -129 0 -67 20 -109 61 -131 80 -41 159 27 159 136 0 87 -42 140 -110 140 -20 0 -46 -7 -58 -16z m95 -31 c13 -20 18 -47 18 -105 0 -67 -3 -81 -22 -100 -32 -32 -68 -13 -84 44 -13 52 -8 150 10 172 21 25 58 20 78 -11z"/>
<path d="M6884 6948 c12 -17 16 -48 16 -123 0 -68 4 -107 13 -119 19 -25 63 -23 93 4 l24 23 0 -21 c0 -25 5 -26 49 -11 32 11 42 29 16 29 -12 0 -15 20 -15 120 l0 120 -42 0 c-39 0 -40 -1 -25 -18 26 -28 24 -192 -1 -215 -51 -46 -72 -7 -72 134 l0 99 -36 0 c-34 0 -35 -1 -20 -22z"/>
<path d="M7195 6953 c-24 -14 -26 -18 -12 -21 15 -3 17 -16 17 -104 0 -80 -3 -105 -17 -120 -15 -17 -14 -18 43 -18 45 1 55 3 42 11 -15 8 -18 25 -18 109 0 94 1 100 24 115 13 8 30 13 39 9 35 -13 37 -205 2 -230 -17 -12 -12 -14 40 -14 56 0 57 1 42 18 -14 15 -17 40 -17 125 0 83 -3 109 -16 121 -21 22 -56 20 -88 -5 l-26 -20 0 20 c0 25 -15 26 -55 4z"/>
<path d="M7811 6951 c-39 -39 -53 -144 -27 -205 15 -37 50 -66 79 -66 26 0 77 54 77 81 0 21 -1 21 -21 -5 -28 -36 -64 -34 -84 4 -8 16 -15 40 -15 55 0 24 2 25 66 25 l66 0 -7 33 c-12 54 -23 75 -44 86 -30 17 -69 13 -90 -8z m78 -38 c15 -53 15 -53 -29 -53 -36 0 -40 2 -40 26 0 69 52 89 69 27z"/>
<path d="M10540 6953 c-24 -11 -30 -17 -20 -21 26 -9 30 -24 30 -114 0 -75 -3 -91 -20 -108 l-20 -20 68 1 c37 0 60 3 52 6 -31 11 -40 37 -40 114 0 59 4 82 18 99 16 20 21 21 41 10 27 -14 45 -2 39 26 -6 32 -49 30 -75 -3 l-23 -28 0 28 c0 31 -2 31 -50 10z"/>
<path d="M10791 6951 c-39 -39 -53 -144 -27 -205 15 -37 50 -66 79 -66 26 0 77 54 77 81 0 21 -1 21 -21 -5 -28 -36 -64 -34 -84 4 -8 16 -15 40 -15 55 0 24 2 25 66 25 l66 0 -7 33 c-12 54 -23 75 -44 86 -30 17 -69 13 -90 -8z m78 -38 c15 -53 15 -53 -29 -53 -36 0 -40 2 -40 26 0 69 52 89 69 27z"/>
<path d="M10990 6963 c0 -3 7 -14 16 -24 9 -10 27 -40 39 -67 l23 -49 -29 -54 c-16 -30 -37 -60 -46 -66 -14 -11 -10 -13 27 -13 37 0 41 2 28 13 -15 11 -15 16 7 57 l23 45 21 -48 c25 -58 25 -54 4 -60 -10 -3 9 -5 41 -6 58 -1 59 -1 40 17 -10 10 -32 46 -48 80 l-30 62 22 45 c12 25 29 48 37 51 27 11 16 24 -21 24 -28 0 -34 -3 -26 -12 7 -9 5 -23 -7 -46 l-17 -33 -12 26 c-7 15 -10 36 -7 46 6 17 1 19 -39 19 -25 0 -46 -3 -46 -7z"/>
<path d="M11298 6953 c-30 -35 -38 -62 -38 -130 0 -107 44 -160 110 -133 16 7 36 27 44 45 23 47 20 66 -4 28 -36 -59 -88 -37 -105 45 l-7 32 68 0 67 0 -6 41 c-7 53 -40 89 -82 89 -18 0 -39 -8 -47 -17z m72 -22 c5 -11 10 -31 10 -45 0 -24 -4 -26 -41 -26 l-41 0 7 37 c4 21 9 41 11 45 10 15 43 8 54 -11z"/>
<path d="M12265 6953 c-24 -14 -26 -18 -12 -21 15 -3 17 -16 17 -104 0 -80 -3 -105 -17 -120 -15 -17 -14 -18 43 -18 45 1 55 3 42 11 -15 8 -18 25 -18 109 0 94 1 100 24 115 13 8 30 13 39 9 35 -13 37 -205 2 -230 -17 -12 -12 -14 40 -14 56 0 57 1 42 18 -14 15 -17 40 -17 125 0 83 -3 109 -16 121 -21 22 -56 20 -88 -5 l-26 -20 0 20 c0 25 -15 26 -55 4z"/>
<path d="M12571 6951 c-31 -16 -32 -18 -12 -24 20 -5 21 -11 21 -105 0 -93 -2 -102 -22 -116 -21 -15 -19 -16 42 -16 49 1 61 3 48 11 -16 9 -18 27 -18 139 0 142 0 142 -59 111z"/>
<path d="M12720 6961 c0 -6 4 -13 10 -16 5 -3 28 -64 50 -135 23 -72 43 -130 45 -130 2 0 22 58 44 130 23 71 46 132 51 135 21 13 8 25 -27 25 -34 -1 -36 -2 -20 -14 16 -13 16 -17 -4 -82 -11 -38 -24 -73 -28 -77 -4 -4 -17 25 -28 65 -18 65 -19 75 -5 91 14 16 12 17 -36 17 -29 0 -52 -4 -52 -9z"/>
<path d="M13031 6951 c-39 -39 -53 -144 -27 -205 15 -37 50 -66 79 -66 26 0 77 54 77 81 0 21 -1 21 -21 -5 -28 -36 -64 -34 -84 4 -8 16 -15 40 -15 55 0 24 2 25 66 25 l66 0 -7 33 c-12 54 -23 75 -44 86 -30 17 -69 13 -90 -8z m78 -38 c15 -53 15 -53 -29 -53 -36 0 -40 2 -40 26 0 69 52 89 69 27z"/>
<path d="M13256 6953 c-25 -13 -27 -17 -13 -25 14 -7 17 -26 17 -114 0 -99 -1 -105 -22 -114 -17 -6 -5 -9 47 -9 59 0 66 2 47 12 -22 10 -23 15 -22 111 3 174 4 171 -54 139z"/>
<path d="M13337 6952 c-21 -23 -22 -33 -2 -26 8 4 22 0 31 -7 12 -10 18 -9 31 4 13 13 14 19 3 31 -17 21 -43 20 -63 -2z"/>
<path d="M13487 6953 c-10 -11 -17 -35 -17 -57 0 -32 7 -45 51 -87 53 -51 61 -81 27 -103 -25 -15 -50 2 -65 45 l-12 34 0 -46 c-1 -30 3 -46 12 -46 6 -1 26 -4 44 -8 26 -6 36 -3 57 18 43 43 35 79 -30 147 -57 59 -67 91 -31 98 22 4 46 -14 60 -48 11 -24 11 -24 15 14 2 21 2 40 -1 42 -2 2 -23 7 -48 10 -36 5 -47 2 -62 -13z"/>
<path d="M13701 6951 c-31 -16 -32 -18 -12 -24 20 -5 21 -11 21 -105 0 -93 -2 -102 -22 -116 -21 -15 -19 -16 42 -16 49 1 61 3 48 11 -16 9 -18 27 -18 139 0 142 0 142 -59 111z"/>
<path d="M14060 6961 c0 -5 6 -11 14 -14 8 -3 33 -64 57 -134 39 -120 41 -131 28 -158 -11 -24 -21 -31 -52 -33 -33 -3 -38 -6 -35 -25 2 -17 10 -22 33 -22 44 0 66 43 110 212 21 81 42 152 47 158 14 16 9 25 -18 25 -21 0 -24 -3 -19 -21 7 -22 -22 -159 -34 -159 -4 0 -18 35 -32 77 -17 57 -20 78 -11 81 29 9 8 22 -38 22 -27 0 -50 -4 -50 -9z"/>
<path d="M14504 6962 c-21 -14 -36 -54 -29 -80 3 -15 29 -50 57 -79 48 -49 51 -54 40 -78 -17 -37 -52 -30 -74 13 -24 50 -28 50 -28 -2 0 -32 4 -46 13 -45 6 1 25 -1 40 -6 57 -15 107 36 92 94 -4 14 -29 47 -56 73 -57 55 -64 93 -19 93 19 0 29 -9 42 -35 l18 -35 0 45 0 45 -43 2 c-23 2 -47 0 -53 -5z"/>
<path d="M15055 6953 c-24 -14 -26 -18 -12 -21 15 -3 17 -16 17 -104 0 -80 -3 -105 -17 -120 -15 -17 -14 -18 43 -18 45 1 55 3 42 11 -15 8 -18 25 -18 109 0 94 1 100 24 115 13 8 30 13 39 9 35 -13 37 -205 2 -230 -17 -12 -12 -14 40 -14 56 0 57 1 42 18 -14 15 -17 40 -17 125 0 83 -3 109 -16 121 -21 22 -56 20 -88 -5 l-26 -20 0 20 c0 25 -15 26 -55 4z"/>
<path d="M15671 6951 c-39 -39 -53 -144 -27 -205 15 -37 50 -66 79 -66 26 0 77 54 77 81 0 21 -1 21 -21 -5 -28 -36 -64 -34 -84 4 -8 16 -15 40 -15 55 0 24 2 25 66 25 l66 0 -7 33 c-12 54 -23 75 -44 86 -30 17 -69 13 -90 -8z m78 -38 c15 -53 15 -53 -29 -53 -36 0 -40 2 -40 26 0 69 52 89 69 27z"/>
<path d="M15886 6953 c-25 -13 -27 -17 -13 -25 15 -8 17 -30 17 -173 0 -146 -2 -165 -17 -174 -14 -8 -2 -10 47 -10 49 0 59 3 43 9 -20 8 -23 16 -23 69 l0 60 28 -15 c82 -47 162 100 117 214 -27 67 -86 84 -124 36 l-21 -27 0 27 c0 30 -13 32 -54 9z m141 -43 c7 -14 13 -57 13 -95 0 -77 -17 -115 -50 -115 -34 0 -50 38 -50 120 0 64 4 80 21 99 25 27 49 24 66 -9z"/>
<path d="M16206 6945 c-39 -42 -49 -150 -20 -210 17 -37 61 -60 94 -50 25 8 60 61 60 90 0 16 -4 13 -20 -12 -36 -60 -89 -37 -104 45 l-5 32 64 0 65 0 0 30 c0 88 -81 133 -134 75z m72 -7 c7 -7 12 -27 12 -45 0 -32 -1 -33 -40 -33 -43 0 -43 -1 -23 73 5 20 33 23 51 5z"/>
<path d="M16430 6950 c-22 -12 -28 -19 -17 -20 15 0 17 -12 17 -110 0 -93 -3 -110 -17 -119 -14 -8 -2 -10 47 -11 61 0 63 1 42 16 -20 14 -22 23 -22 105 0 76 3 92 20 109 11 11 26 20 33 20 29 0 37 -25 37 -119 0 -74 -4 -98 -17 -113 -15 -17 -14 -18 43 -18 45 1 55 3 42 11 -15 8 -18 25 -18 112 0 118 -12 150 -54 155 -20 3 -37 -4 -57 -24 l-29 -28 0 27 c0 32 -4 32 -50 7z"/>
<path d="M17048 6953 c-30 -35 -38 -62 -38 -130 0 -107 44 -160 110 -133 16 7 36 27 44 45 23 47 20 66 -4 28 -36 -59 -88 -37 -105 45 l-7 32 68 0 67 0 -6 41 c-7 53 -40 89 -82 89 -18 0 -39 -8 -47 -17z m72 -22 c5 -11 10 -31 10 -45 0 -24 -4 -26 -41 -26 l-41 0 7 37 c4 21 9 41 11 45 10 15 43 8 54 -11z"/>
<path d="M17265 6953 c-24 -14 -26 -18 -12 -21 15 -3 17 -17 17 -112 0 -93 -3 -110 -17 -119 -14 -8 -4 -10 41 -11 57 0 59 1 42 19 -14 15 -17 37 -16 112 2 168 4 164 -55 132z"/>
<path d="M17353 6955 c-31 -22 -29 -37 3 -23 42 19 54 -8 54 -118 0 -85 -2 -94 -22 -108 -21 -15 -20 -16 37 -16 46 0 56 3 47 12 -7 7 -12 46 -13 103 0 118 -14 159 -54 163 -16 1 -40 -4 -52 -13z"/>
<path d="M18422 6953 c14 -15 18 -42 20 -127 3 -104 4 -110 29 -128 25 -19 28 -19 58 -4 17 9 31 21 31 26 0 6 5 10 10 10 6 0 10 -11 10 -25 l0 -25 35 17 c36 17 46 33 20 33 -12 0 -15 20 -15 120 l0 120 -42 0 c-41 -1 -42 -1 -23 -16 17 -12 21 -29 23 -103 4 -80 2 -91 -18 -111 -12 -12 -31 -20 -43 -18 -21 3 -22 9 -27 123 l-5 120 -40 3 c-38 3 -39 3 -23 -15z"/>
<path d="M19053 6948 c-72 -77 -38 -268 47 -268 26 0 65 35 80 70 16 38 5 53 -11 16 -28 -60 -94 -37 -106 37 l-6 37 68 0 68 0 -6 37 c-9 55 -37 87 -78 91 -26 2 -40 -3 -56 -20z m77 -24 c20 -51 14 -64 -30 -64 -36 0 -40 2 -40 26 0 61 51 89 70 38z"/>
<path d="M19275 6953 c-24 -14 -26 -18 -12 -21 15 -3 17 -16 17 -104 0 -80 -3 -105 -17 -120 -15 -17 -14 -18 43 -18 45 1 55 3 42 11 -15 8 -18 25 -18 109 0 94 1 100 24 115 13 8 30 13 39 9 35 -13 37 -205 2 -230 -17 -12 -12 -14 40 -14 56 0 57 1 42 18 -14 15 -17 40 -17 125 0 83 -3 109 -16 121 -21 22 -56 20 -88 -5 l-26 -20 0 20 c0 25 -15 26 -55 4z"/>
<path d="M20366 6945 c-39 -42 -49 -150 -20 -210 17 -37 61 -60 94 -50 25 8 60 61 60 90 0 16 -4 13 -20 -12 -36 -60 -89 -37 -104 45 l-5 32 64 0 65 0 0 30 c0 88 -81 133 -134 75z m72 -7 c7 -7 12 -27 12 -45 0 -32 -1 -33 -40 -33 -43 0 -43 -1 -23 73 5 20 33 23 51 5z"/>
<path d="M20573 6953 c8 -10 32 -75 53 -146 21 -70 41 -124 45 -120 4 5 19 43 34 86 15 42 29 77 30 77 2 0 15 -39 29 -86 15 -47 29 -84 32 -81 3 3 22 60 43 128 21 68 42 132 46 142 6 14 2 17 -24 17 -28 0 -30 -2 -19 -19 9 -15 8 -32 -7 -83 -10 -34 -21 -66 -25 -71 -3 -4 -17 27 -30 68 -23 74 -23 75 -4 90 17 13 14 14 -39 15 l-58 0 20 -26 c25 -32 26 -55 5 -119 -19 -54 -22 -51 -49 43 -15 51 -16 68 -7 83 11 18 9 19 -39 19 -49 0 -51 -1 -36 -17z"/>
<path d="M20984 6962 c-21 -14 -36 -54 -29 -80 3 -15 29 -50 57 -79 48 -49 51 -54 40 -78 -17 -37 -52 -30 -74 13 -24 50 -28 50 -28 -2 0 -32 4 -46 13 -45 6 1 25 -1 40 -6 57 -15 107 36 92 94 -4 14 -29 47 -56 73 -57 55 -64 93 -19 93 19 0 29 -9 42 -35 l18 -35 0 45 0 45 -43 2 c-23 2 -47 0 -53 -5z"/>
<path d="M21176 6953 c-25 -13 -27 -17 -13 -25 15 -8 17 -30 17 -173 0 -146 -2 -165 -17 -174 -14 -8 -2 -10 47 -10 49 0 59 3 43 9 -20 8 -23 16 -23 69 l0 60 28 -15 c82 -47 162 100 117 214 -27 67 -86 84 -124 36 l-21 -27 0 27 c0 30 -13 32 -54 9z m141 -43 c7 -14 13 -57 13 -95 0 -77 -17 -115 -50 -115 -34 0 -50 38 -50 120 0 64 4 80 21 99 25 27 49 24 66 -9z"/>
<path d="M21505 6958 c-26 -15 -35 -28 -35 -56 0 -19 5 -23 23 -20 17 2 21 9 19 27 -5 51 51 72 68 25 19 -48 12 -61 -45 -93 -30 -17 -59 -39 -65 -50 -18 -34 -12 -78 12 -95 32 -23 55 -20 83 10 23 25 25 25 25 7 0 -29 28 -37 58 -17 l26 17 -22 8 c-21 8 -22 14 -22 112 0 88 -3 106 -18 120 -21 19 -77 22 -107 5z m85 -156 c0 -36 -5 -54 -19 -66 -30 -27 -55 -17 -59 24 -3 29 2 39 29 62 18 16 37 28 41 28 4 0 8 -22 8 -48z"/>
<path d="M21746 6953 c-25 -13 -27 -17 -13 -25 15 -8 17 -30 17 -173 0 -146 -2 -165 -17 -174 -14 -8 -2 -10 47 -10 49 0 59 3 43 9 -20 8 -23 16 -23 69 l0 60 28 -15 c82 -47 162 100 117 214 -27 67 -86 84 -124 36 l-21 -27 0 27 c0 30 -13 32 -54 9z m141 -43 c7 -14 13 -57 13 -95 0 -77 -17 -115 -50 -115 -34 0 -50 38 -50 120 0 64 4 80 21 99 25 27 49 24 66 -9z"/>
<path d="M22066 6945 c-39 -42 -49 -150 -20 -210 17 -37 61 -60 94 -50 25 8 60 61 60 90 0 16 -4 13 -20 -12 -36 -60 -89 -37 -104 45 l-5 32 64 0 65 0 0 30 c0 88 -81 133 -134 75z m72 -7 c7 -7 12 -27 12 -45 0 -32 -1 -33 -40 -33 -43 0 -43 -1 -23 73 5 20 33 23 51 5z"/>
<path d="M22291 6951 c-31 -16 -32 -18 -12 -24 20 -5 21 -11 21 -105 0 -93 -2 -102 -22 -116 -21 -15 -19 -16 47 -15 52 0 64 3 48 9 -22 9 -23 15 -23 108 0 79 3 102 16 113 13 10 19 10 36 0 24 -15 42 -3 36 25 -5 28 -43 29 -67 3 l-21 -23 0 22 c0 26 -14 27 -59 3z"/>
</g>
</svg>